<svg t="1748870035558" class="icon" viewBox="0 0 1024 1024" version="1.1" xmlns="http://www.w3.org/2000/svg" p-id="1514" width="200" height="200"><path d="M929.088 444.352a51.2 51.2 0 0 1 51.2 51.2 473.408 473.408 0 0 1-314.304 445.824 119.68 119.68 0 1 1-14.656-104.128 370.944 370.944 0 0 0 226.56-341.696 51.2 51.2 0 0 1 51.2-51.2zM136.704 187.776a119.424 119.424 0 1 1 5.76 238.848 370.752 370.752 0 0 0 169.856 384.832l21.76 12.352 4.48 2.624a51.264 51.264 0 0 1-47.616 90.112l-4.736-2.24-13.888-7.616A473.152 473.152 0 0 1 46.72 385.856a119.68 119.68 0 0 1 90.048-198.144z" p-id="1515" fill="#1296db"></path><path d="M504.32 303.424l119.68 372.224H522.496l-2.624-9.472-22.4-81.6H401.664l-25.472 91.072H277.376l119.04-372.16 2.944-8.96h102.08l2.816 8.96zM450.752 413.44c-5.888 23.168-12.032 46.272-18.432 68.352l0.064 0.064-6.016 22.976h49.024l-5.952-22.656-15.808-57.984-2.88-10.752z" p-id="1516" fill="#1296db"></path><path d="M731.968 675.648h-96.64V294.592h96.64v381.056zM887.232 187.776a119.68 119.68 0 1 1-0.128 239.36 119.68 119.68 0 0 1 0.128-239.36zM506.944 22.336c100.416 0 193.664 31.296 270.272 84.672l15.104 10.88 4.032 3.456a51.2 51.2 0 0 1-61.44 81.216l-4.352-2.944-11.84-8.64a369.088 369.088 0 0 0-211.776-66.304A369.152 369.152 0 0 0 283.392 199.68l-4.288 2.944a51.2 51.2 0 0 1-57.472-84.608l15.104-10.944A471.36 471.36 0 0 1 506.88 22.336z" p-id="1517" fill="#1296db"></path></svg>